<svg width="344" height="344" viewBox="0 0 344 344" fill="none" xmlns="http://www.w3.org/2000/svg"><circle cx="172" cy="172" r="50" fill="url(#a)"/><circle cx="172" cy="172" r="171.5" stroke="url(#b)"/><circle cx="172" cy="172" r="138.5" stroke="url(#c)"/><circle cx="172" cy="172" r="110.5" stroke="url(#d)"/><circle cx="172" cy="172" r="79.5" stroke="url(#e)"/><defs><linearGradient id="a" x1="168.5" y1="245" x2="168.5" y2="119" gradientUnits="userSpaceOnUse"><stop stop-color="#9D0D3D" stop-opacity="0"/><stop offset=".541" stop-color="#DF512B" stop-opacity=".76"/><stop offset="1" stop-color="#BF8C2C"/></linearGradient><linearGradient id="b" x1="172" y1="0" x2="172" y2="344" gradientUnits="userSpaceOnUse"><stop stop-color="#CE722C"/><stop offset="1" stop-color="#5E181A" stop-opacity="0"/></linearGradient><linearGradient id="c" x1="172" y1="33" x2="172" y2="311" gradientUnits="userSpaceOnUse"><stop stop-color="#CE722C"/><stop offset="1" stop-color="#5E181A" stop-opacity="0"/></linearGradient><linearGradient id="d" x1="172" y1="61" x2="172" y2="283" gradientUnits="userSpaceOnUse"><stop stop-color="#CE722C"/><stop offset="1" stop-color="#471514" stop-opacity="0"/></linearGradient><linearGradient id="e" x1="172" y1="92" x2="172" y2="252" gradientUnits="userSpaceOnUse"><stop stop-color="#CE722C"/><stop offset="1" stop-color="#5E181A" stop-opacity="0"/></linearGradient></defs><svg x="140" y="140" width="64" height="64" viewBox="0 0 64 64"><path d="M58.667 53.333H5.333V48H8V29.416C8 16.115 18.747 5.333 32 5.333s24 10.782 24 24.083V48h2.667zM13.333 48h37.334V29.416c0-10.355-8.358-18.75-18.667-18.75s-18.667 8.395-18.667 18.75zm12 8h13.334a6.666 6.666 0 1 1-13.334 0" fill="url(#f)"/><defs><linearGradient id="f" x1="-4.162" y1="38.023" x2="64.525" y2="38.023" gradientUnits="userSpaceOnUse"><stop stop-color="#CE722C"/><stop offset=".541" stop-color="#fff"/><stop offset="1" stop-color="#CE722C"/></linearGradient></defs></svg></svg>